<mxfile host="app.diagrams.net" modified="2024-07-12T08:22:30.230Z" agent="Mozilla/5.0 (Windows NT 10.0; Win64; x64) AppleWebKit/537.36 (KHTML, like Gecko) Chrome/126.0.0.0 Safari/537.36" etag="39N97VKhBDR2_vIeFNUL" version="24.6.5" type="device">
  <diagram name="Seite-1" id="XblLDfdcsWcAisGGZU6l">
    <mxGraphModel dx="1050" dy="530" grid="1" gridSize="10" guides="1" tooltips="1" connect="1" arrows="1" fold="1" page="1" pageScale="1" pageWidth="1500" pageHeight="850" math="0" shadow="0">
      <root>
        <mxCell id="0" />
        <mxCell id="1" parent="0" />
        <mxCell id="laCMnUiCOB5MK96O3-tA-13" value="ready for use" style="rounded=1;whiteSpace=wrap;html=1;arcSize=40;fontColor=#000000;fillColor=#ffffc0;strokeColor=#ff0000;" parent="1" vertex="1">
          <mxGeometry x="140" y="235" width="120" height="40" as="geometry" />
        </mxCell>
        <mxCell id="laCMnUiCOB5MK96O3-tA-14" value="" style="edgeStyle=orthogonalEdgeStyle;html=1;verticalAlign=bottom;endArrow=open;endSize=8;strokeColor=#ff0000;rounded=0;entryX=0;entryY=0.5;entryDx=0;entryDy=0;" parent="1" source="laCMnUiCOB5MK96O3-tA-13" target="laCMnUiCOB5MK96O3-tA-54" edge="1">
          <mxGeometry relative="1" as="geometry">
            <mxPoint x="345" y="255" as="targetPoint" />
          </mxGeometry>
        </mxCell>
        <mxCell id="laCMnUiCOB5MK96O3-tA-16" value="insert card" style="edgeLabel;html=1;align=center;verticalAlign=middle;resizable=0;points=[];" parent="laCMnUiCOB5MK96O3-tA-14" vertex="1" connectable="0">
          <mxGeometry x="-0.28" y="1" relative="1" as="geometry">
            <mxPoint as="offset" />
          </mxGeometry>
        </mxCell>
        <mxCell id="laCMnUiCOB5MK96O3-tA-22" style="edgeStyle=orthogonalEdgeStyle;rounded=0;orthogonalLoop=1;jettySize=auto;html=1;entryX=0;entryY=0.5;entryDx=0;entryDy=0;exitX=1;exitY=0.5;exitDx=0;exitDy=0;" parent="1" source="laCMnUiCOB5MK96O3-tA-54" target="laCMnUiCOB5MK96O3-tA-19" edge="1">
          <mxGeometry relative="1" as="geometry">
            <mxPoint x="465" y="255" as="sourcePoint" />
          </mxGeometry>
        </mxCell>
        <mxCell id="laCMnUiCOB5MK96O3-tA-48" value="enter PIN" style="edgeLabel;html=1;align=center;verticalAlign=middle;resizable=0;points=[];" parent="laCMnUiCOB5MK96O3-tA-22" vertex="1" connectable="0">
          <mxGeometry x="-0.124" y="-1" relative="1" as="geometry">
            <mxPoint as="offset" />
          </mxGeometry>
        </mxCell>
        <mxCell id="laCMnUiCOB5MK96O3-tA-19" value="Check PIN" style="swimlane;fontStyle=1;align=center;verticalAlign=middle;childLayout=stackLayout;horizontal=1;startSize=30;horizontalStack=0;resizeParent=0;resizeLast=1;container=0;fontColor=#000000;collapsible=0;rounded=1;arcSize=30;strokeColor=#ff0000;fillColor=#ffffc0;swimlaneFillColor=#ffffc0;dropTarget=0;" parent="1" vertex="1">
          <mxGeometry x="580" y="110" width="380" height="340" as="geometry" />
        </mxCell>
        <mxCell id="laCMnUiCOB5MK96O3-tA-21" value="" style="edgeStyle=orthogonalEdgeStyle;html=1;verticalAlign=bottom;endArrow=open;endSize=8;strokeColor=#ff0000;rounded=0;" parent="1" source="laCMnUiCOB5MK96O3-tA-19" target="laCMnUiCOB5MK96O3-tA-34" edge="1">
          <mxGeometry relative="1" as="geometry">
            <mxPoint x="1080" y="255" as="targetPoint" />
          </mxGeometry>
        </mxCell>
        <mxCell id="laCMnUiCOB5MK96O3-tA-43" value="accept" style="edgeLabel;html=1;align=center;verticalAlign=middle;resizable=0;points=[];" parent="laCMnUiCOB5MK96O3-tA-21" vertex="1" connectable="0">
          <mxGeometry x="-0.0133" relative="1" as="geometry">
            <mxPoint as="offset" />
          </mxGeometry>
        </mxCell>
        <mxCell id="laCMnUiCOB5MK96O3-tA-23" value="" style="ellipse;html=1;shape=startState;fillColor=#000000;strokeColor=#ff0000;" parent="1" vertex="1">
          <mxGeometry x="20" y="240" width="30" height="30" as="geometry" />
        </mxCell>
        <mxCell id="laCMnUiCOB5MK96O3-tA-24" value="" style="edgeStyle=orthogonalEdgeStyle;html=1;verticalAlign=bottom;endArrow=open;endSize=8;strokeColor=#ff0000;rounded=0;entryX=0;entryY=0.5;entryDx=0;entryDy=0;" parent="1" source="laCMnUiCOB5MK96O3-tA-23" target="laCMnUiCOB5MK96O3-tA-13" edge="1">
          <mxGeometry relative="1" as="geometry">
            <mxPoint x="65" y="335" as="targetPoint" />
          </mxGeometry>
        </mxCell>
        <mxCell id="laCMnUiCOB5MK96O3-tA-25" value="" style="ellipse;html=1;shape=startState;fillColor=#000000;strokeColor=#ff0000;" parent="1" vertex="1">
          <mxGeometry x="590" y="150" width="30" height="30" as="geometry" />
        </mxCell>
        <mxCell id="laCMnUiCOB5MK96O3-tA-26" value="" style="edgeStyle=orthogonalEdgeStyle;html=1;verticalAlign=bottom;endArrow=open;endSize=8;strokeColor=#ff0000;rounded=0;" parent="1" source="laCMnUiCOB5MK96O3-tA-25" target="laCMnUiCOB5MK96O3-tA-27" edge="1">
          <mxGeometry relative="1" as="geometry">
            <mxPoint x="710" y="165" as="targetPoint" />
          </mxGeometry>
        </mxCell>
        <mxCell id="laCMnUiCOB5MK96O3-tA-31" style="edgeStyle=orthogonalEdgeStyle;rounded=0;orthogonalLoop=1;jettySize=auto;html=1;entryX=0.5;entryY=0;entryDx=0;entryDy=0;" parent="1" source="laCMnUiCOB5MK96O3-tA-27" target="laCMnUiCOB5MK96O3-tA-56" edge="1">
          <mxGeometry relative="1" as="geometry">
            <mxPoint x="790" y="230" as="targetPoint" />
          </mxGeometry>
        </mxCell>
        <mxCell id="laCMnUiCOB5MK96O3-tA-32" value="check PIN" style="edgeLabel;html=1;align=center;verticalAlign=middle;resizable=0;points=[];" parent="laCMnUiCOB5MK96O3-tA-31" vertex="1" connectable="0">
          <mxGeometry x="-0.1644" y="1" relative="1" as="geometry">
            <mxPoint as="offset" />
          </mxGeometry>
        </mxCell>
        <mxCell id="laCMnUiCOB5MK96O3-tA-27" value="PIN entered" style="rounded=1;whiteSpace=wrap;html=1;arcSize=40;fontColor=#000000;fillColor=#ffffc0;strokeColor=#ff0000;" parent="1" vertex="1">
          <mxGeometry x="730" y="145" width="120" height="40" as="geometry" />
        </mxCell>
        <mxCell id="laCMnUiCOB5MK96O3-tA-33" value="" style="ellipse;html=1;shape=endState;fillColor=#000000;strokeColor=#ff0000;" parent="1" vertex="1">
          <mxGeometry x="775" y="410" width="30" height="30" as="geometry" />
        </mxCell>
        <mxCell id="laCMnUiCOB5MK96O3-tA-41" style="edgeStyle=orthogonalEdgeStyle;rounded=0;orthogonalLoop=1;jettySize=auto;html=1;entryX=1;entryY=0.5;entryDx=0;entryDy=0;" parent="1" source="laCMnUiCOB5MK96O3-tA-34" target="laCMnUiCOB5MK96O3-tA-35" edge="1">
          <mxGeometry relative="1" as="geometry" />
        </mxCell>
        <mxCell id="laCMnUiCOB5MK96O3-tA-42" value="choose amount" style="edgeLabel;html=1;align=center;verticalAlign=middle;resizable=0;points=[];" parent="laCMnUiCOB5MK96O3-tA-41" vertex="1" connectable="0">
          <mxGeometry x="0.1689" y="-1" relative="1" as="geometry">
            <mxPoint as="offset" />
          </mxGeometry>
        </mxCell>
        <mxCell id="laCMnUiCOB5MK96O3-tA-34" value="PIN accepted" style="rounded=1;whiteSpace=wrap;html=1;arcSize=40;fontColor=#000000;fillColor=#ffffc0;strokeColor=#ff0000;" parent="1" vertex="1">
          <mxGeometry x="710" y="570" width="120" height="40" as="geometry" />
        </mxCell>
        <mxCell id="laCMnUiCOB5MK96O3-tA-35" value="Is enough money in stock?" style="rhombus;whiteSpace=wrap;html=1;fontColor=#000000;fillColor=#ffffc0;strokeColor=#ff0000;" parent="1" vertex="1">
          <mxGeometry x="380" y="500" width="140" height="80" as="geometry" />
        </mxCell>
        <mxCell id="laCMnUiCOB5MK96O3-tA-36" value="no" style="edgeStyle=orthogonalEdgeStyle;html=1;align=left;verticalAlign=bottom;endArrow=open;endSize=8;strokeColor=#ff0000;rounded=0;exitX=0.5;exitY=0;exitDx=0;exitDy=0;entryX=0.5;entryY=1;entryDx=0;entryDy=0;" parent="1" source="laCMnUiCOB5MK96O3-tA-35" target="laCMnUiCOB5MK96O3-tA-38" edge="1">
          <mxGeometry x="-1" relative="1" as="geometry">
            <mxPoint x="230" y="460" as="targetPoint" />
          </mxGeometry>
        </mxCell>
        <mxCell id="laCMnUiCOB5MK96O3-tA-37" value="yes" style="edgeStyle=orthogonalEdgeStyle;html=1;align=left;verticalAlign=top;endArrow=open;endSize=8;strokeColor=#ff0000;rounded=0;entryX=0.5;entryY=0;entryDx=0;entryDy=0;" parent="1" source="laCMnUiCOB5MK96O3-tA-35" target="laCMnUiCOB5MK96O3-tA-49" edge="1">
          <mxGeometry x="-1" relative="1" as="geometry">
            <mxPoint x="450" y="650" as="targetPoint" />
          </mxGeometry>
        </mxCell>
        <mxCell id="laCMnUiCOB5MK96O3-tA-38" value="ATM empty" style="rounded=1;whiteSpace=wrap;html=1;arcSize=40;fontColor=#000000;fillColor=#ffffc0;strokeColor=#ff0000;" parent="1" vertex="1">
          <mxGeometry x="170" y="410" width="120" height="40" as="geometry" />
        </mxCell>
        <mxCell id="laCMnUiCOB5MK96O3-tA-39" value="" style="edgeStyle=orthogonalEdgeStyle;html=1;verticalAlign=bottom;endArrow=open;endSize=8;strokeColor=#ff0000;rounded=0;entryX=0.75;entryY=1;entryDx=0;entryDy=0;" parent="1" source="laCMnUiCOB5MK96O3-tA-38" target="laCMnUiCOB5MK96O3-tA-13" edge="1">
          <mxGeometry relative="1" as="geometry">
            <mxPoint x="190" y="510" as="targetPoint" />
          </mxGeometry>
        </mxCell>
        <mxCell id="laCMnUiCOB5MK96O3-tA-40" value="fill up" style="edgeLabel;html=1;align=center;verticalAlign=middle;resizable=0;points=[];" parent="laCMnUiCOB5MK96O3-tA-39" vertex="1" connectable="0">
          <mxGeometry x="-0.0104" relative="1" as="geometry">
            <mxPoint as="offset" />
          </mxGeometry>
        </mxCell>
        <mxCell id="laCMnUiCOB5MK96O3-tA-65" style="edgeStyle=orthogonalEdgeStyle;rounded=0;orthogonalLoop=1;jettySize=auto;html=1;entryX=0.5;entryY=0;entryDx=0;entryDy=0;" parent="1" source="laCMnUiCOB5MK96O3-tA-49" target="laCMnUiCOB5MK96O3-tA-63" edge="1">
          <mxGeometry relative="1" as="geometry" />
        </mxCell>
        <mxCell id="laCMnUiCOB5MK96O3-tA-66" value="dispense money" style="edgeLabel;html=1;align=center;verticalAlign=middle;resizable=0;points=[];" parent="laCMnUiCOB5MK96O3-tA-65" vertex="1" connectable="0">
          <mxGeometry x="-0.2" relative="1" as="geometry">
            <mxPoint as="offset" />
          </mxGeometry>
        </mxCell>
        <mxCell id="laCMnUiCOB5MK96O3-tA-49" value="ATM stocked" style="rounded=1;whiteSpace=wrap;html=1;arcSize=40;fontColor=#000000;fillColor=#ffffc0;strokeColor=#ff0000;" parent="1" vertex="1">
          <mxGeometry x="390" y="630" width="120" height="40" as="geometry" />
        </mxCell>
        <mxCell id="laCMnUiCOB5MK96O3-tA-54" value="card inserted" style="rounded=1;whiteSpace=wrap;html=1;arcSize=40;fontColor=#000000;fillColor=#ffffc0;strokeColor=#ff0000;" parent="1" vertex="1">
          <mxGeometry x="340" y="235" width="120" height="40" as="geometry" />
        </mxCell>
        <mxCell id="laCMnUiCOB5MK96O3-tA-56" value="Is PIN correct?" style="rhombus;whiteSpace=wrap;html=1;fontColor=#000000;fillColor=#ffffc0;strokeColor=#ff0000;" parent="1" vertex="1">
          <mxGeometry x="750" y="250" width="80" height="40" as="geometry" />
        </mxCell>
        <mxCell id="laCMnUiCOB5MK96O3-tA-57" value="invalid" style="edgeStyle=orthogonalEdgeStyle;html=1;align=left;verticalAlign=bottom;endArrow=open;endSize=8;strokeColor=#ff0000;rounded=0;entryX=1;entryY=0.5;entryDx=0;entryDy=0;exitX=1;exitY=0.5;exitDx=0;exitDy=0;" parent="1" source="laCMnUiCOB5MK96O3-tA-56" target="laCMnUiCOB5MK96O3-tA-27" edge="1">
          <mxGeometry x="-1" relative="1" as="geometry">
            <mxPoint x="620" y="270" as="targetPoint" />
            <Array as="points">
              <mxPoint x="880" y="270" />
              <mxPoint x="880" y="165" />
            </Array>
          </mxGeometry>
        </mxCell>
        <mxCell id="laCMnUiCOB5MK96O3-tA-58" value="valid" style="edgeStyle=orthogonalEdgeStyle;html=1;align=left;verticalAlign=top;endArrow=open;endSize=8;strokeColor=#ff0000;rounded=0;entryX=0.5;entryY=0;entryDx=0;entryDy=0;" parent="1" source="laCMnUiCOB5MK96O3-tA-56" target="laCMnUiCOB5MK96O3-tA-67" edge="1">
          <mxGeometry x="-1" relative="1" as="geometry">
            <mxPoint x="790" y="310" as="targetPoint" />
          </mxGeometry>
        </mxCell>
        <mxCell id="laCMnUiCOB5MK96O3-tA-62" value="" style="ellipse;html=1;shape=endState;fillColor=#000000;strokeColor=#ff0000;" parent="1" vertex="1">
          <mxGeometry x="435" y="800" width="30" height="30" as="geometry" />
        </mxCell>
        <mxCell id="WKMNAJjQT9VjLbfzH0AQ-1" style="edgeStyle=orthogonalEdgeStyle;rounded=0;orthogonalLoop=1;jettySize=auto;html=1;entryX=0.25;entryY=1;entryDx=0;entryDy=0;" edge="1" parent="1" source="laCMnUiCOB5MK96O3-tA-63" target="laCMnUiCOB5MK96O3-tA-13">
          <mxGeometry relative="1" as="geometry" />
        </mxCell>
        <mxCell id="WKMNAJjQT9VjLbfzH0AQ-2" value="ready" style="edgeLabel;html=1;align=center;verticalAlign=middle;resizable=0;points=[];" vertex="1" connectable="0" parent="WKMNAJjQT9VjLbfzH0AQ-1">
          <mxGeometry x="-0.5819" y="2" relative="1" as="geometry">
            <mxPoint as="offset" />
          </mxGeometry>
        </mxCell>
        <mxCell id="laCMnUiCOB5MK96O3-tA-63" value="Money withdrawn" style="rounded=1;whiteSpace=wrap;html=1;arcSize=40;fontColor=#000000;fillColor=#ffffc0;strokeColor=#ff0000;" parent="1" vertex="1">
          <mxGeometry x="390" y="720" width="120" height="40" as="geometry" />
        </mxCell>
        <mxCell id="laCMnUiCOB5MK96O3-tA-64" value="" style="edgeStyle=orthogonalEdgeStyle;html=1;verticalAlign=bottom;endArrow=open;endSize=8;strokeColor=#ff0000;rounded=0;entryX=0.5;entryY=0;entryDx=0;entryDy=0;" parent="1" source="laCMnUiCOB5MK96O3-tA-63" target="laCMnUiCOB5MK96O3-tA-62" edge="1">
          <mxGeometry relative="1" as="geometry">
            <mxPoint x="530" y="740" as="targetPoint" />
          </mxGeometry>
        </mxCell>
        <mxCell id="laCMnUiCOB5MK96O3-tA-67" value="PIN valid" style="rounded=1;whiteSpace=wrap;html=1;arcSize=40;fontColor=#000000;fillColor=#ffffc0;strokeColor=#ff0000;" parent="1" vertex="1">
          <mxGeometry x="730" y="340" width="120" height="40" as="geometry" />
        </mxCell>
        <mxCell id="laCMnUiCOB5MK96O3-tA-68" value="" style="edgeStyle=orthogonalEdgeStyle;html=1;verticalAlign=bottom;endArrow=open;endSize=8;strokeColor=#ff0000;rounded=0;entryX=0.5;entryY=0;entryDx=0;entryDy=0;" parent="1" source="laCMnUiCOB5MK96O3-tA-67" target="laCMnUiCOB5MK96O3-tA-33" edge="1">
          <mxGeometry relative="1" as="geometry">
            <mxPoint x="785" y="440" as="targetPoint" />
          </mxGeometry>
        </mxCell>
      </root>
    </mxGraphModel>
  </diagram>
</mxfile>
